Coordinates
version=1
nRows=6
nColumns=40
inDegrees=yes

Units are S.I. units (second, meters, Newtons, ...)
If the header above contains a line with 'inDegrees', this indicates whether rotational values are in degrees (yes) or radians (no).

endheader
time	pelvis_tilt	pelvis_list	pelvis_rotation	pelvis_tx	pelvis_ty	pelvis_tz	hip_flexion_r	hip_adduction_r	hip_rotation_r	knee_angle_r	knee_angle_r_beta	ankle_angle_r	subtalar_angle_r	mtp_angle_r	hip_flexion_l	hip_adduction_l	hip_rotation_l	knee_angle_l	knee_angle_l_beta	ankle_angle_l	subtalar_angle_l	mtp_angle_l	lumbar_extension	lumbar_bending	lumbar_rotation	arm_flex_r	arm_add_r	arm_rot_r	elbow_flex_r	pro_sup_r	wrist_flex_r	wrist_dev_r	arm_flex_l	arm_add_l	arm_rot_l	elbow_flex_l	pro_sup_l	wrist_flex_l	wrist_dev_l
     17.00000000000000000000	     34.14515930765834639260	    -12.28956568681942762566	    179.47909469010392058408	      0.34895088245729916077	      0.64624581607139275352	     -0.60707537057519089796	    103.38197759885646576095	     -6.30511912865643164849	     14.07784878925706806285	     90.50536010888853866163	      1.57961652460323875857	     23.75990263553764947346	      0.00000000000000000000	      0.00000000000000000000	     95.84120383269880960597	     -7.31873960624707908806	    -10.41461967142843114686	     88.58349960113893928337	      1.54607373097895806069	     26.29439371189281970942	      0.00000000000000000000	      0.00000000000000000000	    -34.79594097374670269573	    -11.13669635961166903826	     -7.32328290379886936989	     53.64131124573274433942	    -12.30467941671073361931	     45.07211241804753143469	      9.66255347830585975544	      6.03208081198830470271	      0.00000000000000000000	      0.00000000000000000000	     60.68233377112176896162	    -18.90552465091859346558	     40.51191554248547532779	     17.23729298493687167593	     87.74491429926678165430	      0.00000000000000000000	      0.00000000000000000000
     17.00499999999999900524	     34.19683652381178262658	    -12.28852420616777152418	    179.47276868153329587585	      0.34883490810062178777	      0.64655320061444798707	     -0.60705135062813386781	    103.37727775619234193982	     -6.30725276070707252529	     14.05631178490213883947	     90.43567469747925713364	      1.57840028473353988225	     23.76997448192381767740	      0.00000000000000000000	      0.00000000000000000000	     95.84056243250074658135	     -7.34286468390709057275	    -10.44310411533389348904	     88.51483745994967478055	      1.54487535054373625876	     26.25445063897120334673	      0.00000000000000000000	      0.00000000000000000000	    -34.79773823520429232303	    -11.13512867949948059731	     -7.31258937737421454983	     53.66163784668569292080	    -12.32065627838685628603	     45.06536490760900193209	      9.66082319282423540585	      6.02755517308355592832	      0.00000000000000000000	      0.00000000000000000000	     60.71114234313190394232	    -18.89102727993491726011	     40.52697271933662648280	     17.22307780708696256511	     87.74815362148862618596	      0.00000000000000000000	      0.00000000000000000000
     17.01000000000000156319	     34.24653352483016277574	    -12.29489783686817716557	    179.45890447224900299261	      0.34872798815498423641	      0.64680441136969168969	     -0.60703932699546447882	    103.38971948456148197693	     -6.31344547137554545913	     14.03041807218591152662	     90.37682326345115768618	      1.57737313344022944683	     23.75840012842979120933	      0.00000000000000000000	      0.00000000000000000000	     95.83978732608639461432	     -7.36308060444070111572	    -10.45638901852072422116	     88.46780944212179065289	      1.54405455679195302565	     26.23122069158237934516	      0.00000000000000000000	      0.00000000000000000000	    -34.79540334958708314161	    -11.13935297509900301804	     -7.31719219576257096094	     53.68998720199115126661	    -12.31646310806984878639	     45.06936280031780484023	      9.65553903398274826486	      6.02319038437698495159	      0.00000000000000000000	      0.00000000000000000000	     60.73065348966165544198	    -18.88315079298696730348	     40.52338793956985085742	     17.19929450316570651580	     87.74884338367293423744	      0.00000000000000000000	      0.00000000000000000000
     17.01500000000000056843	     34.26810865136629047356	    -12.26863329094903498628	    179.40569023275614313206	      0.34857346267563754649	      0.64702167659201659244	     -0.60726145632721628687	    103.34108472913023035744	     -6.19983453257985583917	     14.04422294597433307217	     90.32604130045578472163	      1.57648682098533421403	     23.73773652996344551980	      0.00000000000000000000	      0.00000000000000000000	     95.82747226941481244467	     -7.48955380882614996096	    -10.49891878502562470032	     88.45343843994460542035	      1.54380373548714988630	     26.24756511197811192915	      0.00000000000000000000	      0.00000000000000000000	    -34.80167271159603359365	    -11.14779951996897544575	     -7.26103271912952141776	     53.71333861724910008206	    -12.29952541361577011969	     45.08246380271236830595	      9.65126605709366103270	      6.02141547191661885563	      0.00000000000000000000	      0.00000000000000000000	     60.73555352010743035862	    -18.89816853341416802436	     40.52105953045434461046	     17.20638151984102037773	     87.74987939378499390841	      0.00000000000000000000	      0.00000000000000000000
     17.01999999999999957367	     34.33148855983572644845	    -12.30548334647440000822	    179.45369660838520076140	      0.34849835932269784822	      0.64727439013033449822	     -0.60706796178020150379	    103.38102523910778529626	     -6.29506544195130590680	     14.02294875623575620693	     90.26716867184481429831	      1.57545929977676890665	     23.74497330586375909434	      0.00000000000000000000	      0.00000000000000000000	     95.84351418773658792816	     -7.35960003266212137163	    -10.47888837457529120911	     88.36245118178132429421	      1.54221570825483866862	     26.21755052932417839884	      0.00000000000000000000	      0.00000000000000000000	    -34.79623799516783577701	    -11.14166123813054554148	     -7.33268450597923582279	     53.72941508711209479543	    -12.28665846619943913254	     45.11164659830764378512	      9.64546296782758894039	      6.02351354743772215983	      0.00000000000000000000	      0.00000000000000000000	     60.74460627179684735211	    -18.90827775822594247757	     40.53223675017670046827	     17.21848314894382170337	     87.75101276199214339613	      0.00000000000000000000	      0.00000000000000000000
     17.02499999999999857891	     34.37227867799351344047	    -12.32090707159480302835	    179.47306562652045158757	      0.34837645378979287258	      0.64748881855221829262	     -0.60703670719104496634	    103.39550715570486261186	     -6.32121018598364248220	     14.04351807996953738211	     90.23076912222509804451	      1.57482400778966180610	     23.72969341215391736455	      0.00000000000000000000	      0.00000000000000000000	     95.84531800054242012266	     -7.33417919590869171742	    -10.47788626982023352241	     88.31781460068908984340	      1.54143665294794574017	     26.20638145393326112753	      0.00000000000000000000	      0.00000000000000000000	    -34.79769062042363003684	    -11.14019143965144564845	     -7.37436346958648769601	     53.75522756220908604519	    -12.27063790857010694424	     45.14709379339835493283	      9.63080676434296734101	      6.02364487659561564925	      0.00000000000000000000	      0.00000000000000000000	     60.75151766166091960031	    -18.91658104067142787130	     40.51631412832845313687	     17.21100040236904504809	     87.75078350317907904810	      0.00000000000000000000	      0.00000000000000000000
